# xmcd CD database file
#
# Track frame offsets:
#	150
#	12185
#	25557
#	42170
#	54862
#	67535
#	78190
#	90200
#	103052
#	114977
#	128922
#	140520
#
# Disc length: 2041 seconds
#
# Revision: 0
# Processed by: cddbd v1.5.1PL2 Copyright (c) Steve Scherf et al.
# Submitted via: CDex 1.51
#
DISCID=7e07f70c
DTITLE=Bob Scoby's Frisco Band - The Scoby Story, Vol 2
DYEAR=1900
DGENRE=Jazz
TTITLE0=Big Butter and Egg Man
TTITLE1=Silver Dollar
TTITLE2=Sidewalk Blues
TTITLE3=Everything is Peaches down in Georgia
TTITLE4=Do You Know What it Means to Miss New Orleans
TTITLE5=Peoria
TTITLE6=Blues My Naughty Sweetie gives to me
TTITLE7=Ace in the Hole
TTITLE8=Long Gone
TTITLE9=All the wrongs you've done to me
TTITLE10=Huggin' and A Chalkin'
TTITLE11=Hindustan
EXTD=
EXTT0=
EXTT1=
EXTT2=
EXTT3=
EXTT4=
EXTT5=
EXTT6=
EXTT7=
EXTT8=
EXTT9=
EXTT10=
EXTT11=
PLAYORDER=
